# xmcd
# 
# Track frame offsets:
#     150
#     19401
#     36749
#     57105
#     78317
#     105947
#     124157
#     143578
#     161907
#     176332
#     195911
#     212076
#     230715
#     254984
#     274475
#     291267
# 
# Disc length: 4037
# 
# Revision: 1
# Processed by: cddbd v1.5.2PL0 Copyright (c) Steve Scherf et al.
# Submitted via: fre:ac v1.0.27
# 
DISCID=f30fc310
DTITLE=Various Artist - Nat and Dag 2 - Disc 2
DYEAR=2009
DGENRE=Jazz
TTITLE0=Cæcilie Norby - Cuban Cigars
TTITLE1=Henrik Gunde - Love Is a Matter Of ...
TTITLE2=Maria Montell - Dream On Dreamer
TTITLE3=Lars H.U.G. and Lisa Ekdahl - Backwards
TTITLE4=Mads Kjælby - Old Sport
TTITLE5=Thera Hoeymans - Wait
TTITLE6=Sinne Eeg - Let's Stay Awake
TTITLE7=Benni Chawes - Beautiful World
TTITLE8=Silvana Malta - Tin Tin Por Tin Tin
TTITLE9=Mais Uma - Lá Vou Eu (There I Go)
TTITLE10=Carsten Dahl - Will You Make My Soup Hot And Silver
TTITLE11=Malene Mortensen - Another Day
TTITLE12=Kaya Brüel - Waves Of Joy
TTITLE13=Sidsel Storm - Solen Er Så Rød Mor
TTITLE14=Christina Dahl - It's Too Early
TTITLE15=Møllehave - Jeg Ved En Lærkerede
EXTD=YEAR: 2009
EXTT0=
EXTT1=
EXTT2=
EXTT3=
EXTT4=
EXTT5=
EXTT6=
EXTT7=
EXTT8=
EXTT9=
EXTT10=
EXTT11=
EXTT12=
EXTT13=
EXTT14=
EXTT15=
PLAYORDER=
